<svg width="1088" height="826.29361" xmlns="http://www.w3.org/2000/svg">
 <title>code typing</title>

 <g>
  <title>background</title>
  <rect fill="none" id="canvas_background" height="402" width="582" y="-1" x="-1"/>
 </g>
 <g>
  <title>Layer 1</title>
  <path id="svg_1" fill="#f2f2f2" d="m951.987,329.387589c-47.82006,-188.0394 -213.05347,-323.77755 -407.00175,-329.22189c-102.53463,-2.87826 -210.42969,31.12792 -288.98525,150.12792c-140.42655,212.72536 8.62954,359.72511 112.5475,429.57647a650.24048,650.24048 0 0 1 134.40216,120.80021c70.1932,83.29551 205.22891,186.80189 366.05034,24.62332c116.56358,-117.54724 114.83991,-270.65321 82.987,-395.90603z"/>
  <polygon id="svg_2" opacity="0.1" points="719.6 507.394 818 409.294 719.6 311.194 749.6 281.294 878 409.294 749.6 537.294 719.6 507.394 719.6 507.394"/>
  <path id="svg_3" opacity="0.1" d="m438.6,416.293619l40,0l0,-40l-40,0l0,40zm200.8,-80l-40,0l0,40l40,0l0,-40zm-120.4,40l40,0l0,-40l-40,0l0,40z"/>
  <polygon id="svg_4" opacity="0.1" points="384.4 506.394 285.9 408.294 384.3 310.194 354.3 280.294 226 408.294 354.4 536.294 384.4 506.394"/>
  <path id="svg_5" fill="#3f3d56" d="m1088,752.293619c0,16.56854 -243.5571,74 -544,74s-544,-57.43146 -544,-74s243.5571,14 544,14s544,-30.56855 544,-14z"/>
  <path id="svg_6" opacity="0.1" d="m1088,752.293619c0,16.56854 -243.5571,74 -544,74s-544,-57.43146 -544,-74s243.5571,14 544,14s544,-30.56855 544,-14z"/>
  <ellipse id="svg_7" fill="#3f3d56" ry="30" rx="544" cy="752.29361" cx="544"/>
  <path id="svg_8" fill="#3f3d56" d="m632.696,607.953099c0,64.01613 40.16035,115.81717 89.79084,115.81717"/>
  <path id="svg_9" fill="#6c63ff" d="m722.48684,723.770269c0,-64.73541 44.81662,-117.11849 100.20136,-117.11849"/>
  <path id="svg_10" fill="#6c63ff" d="m665.22891,613.756269c0,60.80852 25.6095,110.014 57.25793,110.014"/>
  <path id="svg_11" fill="#3f3d56" d="m722.48684,723.770269c0,-82.71747 51.801,-149.6514 115.81716,-149.6514"/>
  <path id="svg_12" fill="#a8a8a8" d="m703.59716,724.586809s12.73382,-0.39219 16.57147,-3.12493s19.58782,-5.99578 20.53985,-1.61306s19.13656,21.79764 4.76014,21.9136s-33.4044,-2.23935 -37.23467,-4.57252s-4.63679,-12.60309 -4.63679,-12.60309z"/>
  <path id="svg_13" opacity="0.2" d="m745.72518,740.236809c-14.37642,0.116 -33.40439,-2.23933 -37.23466,-4.57251c-2.91695,-1.77683 -4.07933,-8.15253 -4.46825,-11.094c-0.26935,0.01158 -0.42511,0.01657 -0.42511,0.01657s0.80653,10.26992 4.63681,12.60309s22.85824,4.6885 37.23466,4.57251c4.1499,-0.03347 5.58335,-1.50994 5.50464,-3.69673c-0.57652,1.32107 -2.15927,2.14607 -5.24809,2.17107z"/>
  <path id="svg_14" fill="#ffb9b9" d="m865.53291,382.852559s-30.78848,-23.37612 -33.12545,-14.80723s22.59069,28.04361 22.59069,28.04361l10.53476,-13.23638z"/>
  <path id="svg_15" opacity="0.1" d="m865.53291,382.852559s-30.78848,-23.37612 -33.12545,-14.80723s22.59069,28.04361 22.59069,28.04361l10.53476,-13.23638z"/>
  <path id="svg_16" fill="#d0cde1" d="m967.17262,308.842139s-36.6125,65.4351 -37.39149,74.783s-0.779,10.12686 -3.89495,9.34787s-45.96037,-5.45292 -49.85532,-3.89494s-11.68484,-9.34787 -11.68484,-9.34787s-14.80079,14.80079 -11.68484,17.91675s12.46382,4.67391 14.02182,8.56886s3.89495,7.7899 10.90585,7.01091s54.52925,12.46382 60.76115,10.12685s7.78989,-6.23192 10.90585,-6.23192s9.34787,-3.11595 9.34787,-3.89494s21.8117,-42.06543 21.8117,-42.06543s25.70666,-56.08723 -13.2428,-62.31914z"/>
  <path id="svg_17" opacity="0.1" d="m967.17262,308.842139s-36.6125,65.4351 -37.39149,74.783s-0.779,10.12686 -3.89495,9.34787s-45.96037,-5.45292 -49.85532,-3.89494s-11.68484,-9.34787 -11.68484,-9.34787s-14.80079,14.80079 -11.68484,17.91675s12.46382,4.67391 14.02182,8.56886s3.89495,7.7899 10.90585,7.01091s54.52925,12.46382 60.76115,10.12685s7.78989,-6.23192 10.90585,-6.23192s9.34787,-3.11595 9.34787,-3.89494s21.8117,-42.06543 21.8117,-42.06543s25.70666,-56.08723 -13.2428,-62.31914z"/>
  <path id="svg_19" fill="#b0616a" d="m936.792,290.146389s8.56888,30.38059 1.558,38.94947s42.06542,-3.89495 42.06542,-3.89495s-24.14867,-24.14867 -12.46383,-39.72845l-31.15959,4.67393z"/>
  <polygon id="svg_21" fill="#6c63ff" points="719.6 488.394 818 390.294 719.6 292.194 749.6 262.294 878 390.294 749.6 518.294 719.6 488.394 719.6 488.394"/>
  <polygon id="svg_22" fill="#b0616a" points="909.7479858398438,696.2210083007812 909.7479858398438,718.81201171875 921.4329833984375,732.8330078125 931.5599975585938,728.1589965820312 928.4439697265625,695.4420166015625 909.7479858398438,696.2210083007812 "/>
  <path id="svg_23" fill="#2f2e41" d="m913.42235,716.253559s-3.116,-10.90585 -8.56888,-3.116s-10.90585,24.92766 -14.02181,25.70665s-24.92766,24.92766 -3.116,24.92766s28.82261,-10.12686 28.82261,-10.12686s21.8117,-8.56889 21.8117,-10.12687s-3.116,-30.38058 -4.67394,-30.38058s-2.337,5.45293 -6.23191,5.45293s-14.02177,-2.33693 -14.02177,-2.33693z"/>
  <polygon id="svg_24" fill="#b0616a" points="961.9409790039062,700.1160278320312 961.1619873046875,721.1489868164062 979.8569946289062,728.93798828125 979.8569946289062,698.5579833984375 961.9409790039062,700.1160278320312 "/>
  <path id="svg_25" fill="#2f2e41" d="m981.19442,720.148499s-10.12686,-10.90585 -15.57978,-8.56888a53.81171,53.81171 0 0 0 -7.7899,3.89495s-3.11595,10.12686 -4.67393,18.69574s-2.337,12.46383 -3.89495,15.57979s-3.116,14.8008 12.46383,16.35878s20.25372,-7.01091 20.25372,-7.01091l3.89495,-20.25372s-1.55798,-18.69575 -4.67394,-18.69575z"/>
  <path id="svg_26" fill="#2f2e41" d="m918.87528,474.766859s-22.59069,50.63431 -19.47474,96.59468c0,0 -7.78989,17.91676 -3.11595,45.96037s10.90585,84.1309 10.90585,84.1309s21.03271,2.337 22.59069,-1.558c0,0 1.558,-38.94946 3.11595,-40.50744s-0.779,-37.39149 -3.11595,-44.4024s21.8117,-76.341 21.8117,-76.341l-6.23192,-86.46782l-26.48563,22.59071z"/>
  <path id="svg_27" opacity="0.1" d="m918.87528,474.766859s-22.59069,50.63431 -19.47474,96.59468c0,0 -7.78989,17.91676 -3.11595,45.96037s10.90585,84.1309 10.90585,84.1309s21.03271,2.337 22.59069,-1.558c0,0 1.558,-38.94946 3.11595,-40.50744s-0.779,-37.39149 -3.11595,-44.4024s21.8117,-76.341 21.8117,-76.341l-6.23192,-86.46782l-26.48563,22.59071z"/>
  <path id="svg_28" fill="#2f2e41" d="m912.64336,471.650909l14.8008,31.93856s7.0109,72.446 10.90585,81.79388c0,0 1.558,26.48564 8.56888,35.05452s12.46383,84.13085 12.46383,84.13085s19.47474,5.45292 21.03271,0s6.23192,-42.84442 6.23192,-42.84442s1.558,-31.93856 -7.01091,-52.97127s10.12687,-96.59468 10.12687,-96.59468s19.47473,-36.6125 -8.56889,-66.21409l-68.55106,25.70665z"/>
  <circle stroke="null" id="svg_29" fill="#a0616a" r="31.938568" cy="269.555699" cx="953.9298"/>
  <path id="svg_30" fill="#d0cde1" d="m981.53139,313.853039s-33.49654,0 -38.17048,3.89495a6.2148,6.2148 0 0 1 -8.56888,0s-11.68484,0.779 -14.8008,10.12686s-12.46383,21.8117 -12.46383,21.8117s-14.0218,10.12686 -6.23191,36.6125s1.558,69.33 1.558,69.33s-6.23192,9.34787 0,13.24282s8.56888,5.45292 7.78989,8.56888s70.888,-25.70665 70.888,-31.15957s-1.558,-10.12686 0,-12.46383s3.116,-6.23192 1.558,-10.12686s1.558,-4.67394 0.779,-8.56889s3.895,-32.71755 7.0109,-45.18138s2.33695,-55.30819 -9.34789,-56.08718z"/>
  <path id="svg_31" fill="#b0616a" d="m865.53291,392.200429s-30.78848,-23.37611 -33.12545,-14.80723s22.59069,28.04361 22.59069,28.04361l10.53476,-13.23638z"/>
  <path id="svg_32" fill="#d0cde1" d="m967.17262,319.747989s-36.6125,65.4351 -37.39149,74.783s-0.779,10.12686 -3.89495,9.34788s-45.96037,-5.45293 -49.85532,-3.89495s-11.68484,-9.34787 -11.68484,-9.34787s-14.80079,14.80076 -11.68484,17.91676s12.46383,4.67394 14.02181,8.56888s3.89495,7.7899 10.90585,7.01091s54.52926,12.46379 60.76116,10.12682s7.78989,-6.23192 10.90585,-6.23192s9.34787,-3.11595 9.34787,-3.89494s21.8117,-42.06543 21.8117,-42.06543s25.70666,-56.08723 -13.2428,-62.31914z"/>
  <path id="svg_34" fill="#6c63ff" d="m443.6,405.293619l40,0l0,-40l-40,0l0,40zm200.8,-80l-40,0l0,40l40,0l0,-40zm-120.4,40l40,0l0,-40l-40,0l0,40z"/>
  <ellipse stroke="null" transform="rotate(-11.807979583740234 199.70587158203134,210.83869934082028) " id="svg_35" fill="#2f2e41" ry="41.855808" rx="43.160503" cy="210.838703" cx="199.705872"/>
  <path id="svg_36" fill="#a0616a" d="m211.92755,392.576259s30.29121,2.01941 35.67631,-2.01942s28.2718,5.38511 30.29121,10.77021s-32.31062,6.05824 -37.69573,6.05824s-30.96435,8.07766 -30.96435,8.07766l2.69256,-22.88669z"/>
  <path id="svg_37" fill="#2f2e41" d="m149.55224,706.138319s-14.117,35.59927 -6.75158,39.89573s84.70171,1.22756 84.70171,1.22756s12.88939,-7.97914 -1.84134,-13.50317c0,0 -12.27561,-0.61378 -20.25476,-5.524s-17.18585,-14.117 -17.18585,-14.117s-0.61378,-13.50317 -5.524,-10.43426a12.61392,12.61392 0 0 0 -5.524,8.59292l-27.62018,-6.13778z"/>
  <path id="svg_38" opacity="0.1" d="m149.55224,706.138319s-14.117,35.59927 -6.75158,39.89573s84.70171,1.22756 84.70171,1.22756s12.88939,-7.97914 -1.84134,-13.50317c0,0 -12.27561,-0.61378 -20.25476,-5.524s-17.18585,-14.117 -17.18585,-14.117s-0.61378,-13.50317 -5.524,-10.43426a12.61392,12.61392 0 0 0 -5.524,8.59292l-27.62018,-6.13778z"/>
  <polygon id="svg_39" fill="#6c63ff" points="384.4 487.394 285.9 389.294 384.3 291.194 354.3 261.294 226 389.294 354.4 517.294 384.4 487.394"/>
  <path id="svg_40" fill="#2f2e41" d="m127.7853,717.028809s-15.48218,39.042 -7.40452,43.754s92.893,1.34628 92.893,1.34628s14.1359,-8.7508 -2.01941,-14.809c0,0 -13.46276,-0.67314 -22.21356,-6.05824s-18.84781,-15.48228 -18.84781,-15.48228s-0.67314,-14.809 -6.05824,-11.44335a13.83376,13.83376 0 0 0 -6.05824,9.42393l-30.29122,-6.73134z"/>
  <path id="svg_41" fill="#2f2e41" d="m207.21558,469.313989l-9.42393,84.81539s-3.36569,40.38828 -13.46276,49.13907c0,0 0,12.78962 -3.36569,16.82845l-4.712,53.1779s6.73138,19.521 6.05824,22.88669s2.69256,14.1359 2.01942,15.48218s-32.31063,0 -32.31063,0l6.73138,-108.37522l20.86728,-150.78291l27.59869,16.82845z"/>
  <path id="svg_42" opacity="0.1" d="m207.21558,469.313989l-9.42393,84.81539s-3.36569,40.38828 -13.46276,49.13907c0,0 0,12.78962 -3.36569,16.82845l-4.712,53.1779s6.73138,19.521 6.05824,22.88669s2.69256,14.1359 2.01942,15.48218s-32.31063,0 -32.31063,0l6.73138,-108.37522l20.86728,-150.78291l27.59869,16.82845z"/>
  <path id="svg_43" fill="#2f2e41" d="m190.38713,466.621439s-7.40452,69.33321 -10.77021,84.14225a191.45128,191.45128 0 0 0 -4.03883,29.61807s-0.67313,21.54041 -6.73138,27.59866a18.194,18.194 0 0 0 -5.3851,13.46276s-6.05824,67.98693 -2.69255,76.06459s6.73138,14.809 3.36569,20.19414s-40.38828,5.3851 -40.38828,1.34628s0,-7.40452 -2.01942,-9.42394s0,-14.809 0,-14.809s-8.07765,-59.90928 -0.67313,-77.41087s10.7702,-65.29439 10.7702,-65.29439s-5.3851,-54.52418 -12.11648,-63.275s1.34628,-39.71514 1.34628,-39.71514l69.33321,17.50159z"/>
  <path id="svg_44" fill="#a0616a" d="m171.43564,251.312009c0.78254,1.78268 2.65563,2.77523 4.36085,3.71467c9.88293,5.4447 18.15564,13.33867 26.30611,21.14167a30.88184,30.88184 0 0 1 1.22533,-20.88436c0.97311,-2.25349 2.24854,-4.67575 1.553,-7.02976c-0.51152,-1.73109 -1.98559,-2.97969 -3.41344,-4.084a105.83513,105.83513 0 0 0 -10.40969,-7.10206c-2.52042,-1.50791 -7.7023,-5.52207 -10.59458,-5.08531c-0.15184,3.90788 -0.23113,7.40176 -1.94245,11.05414c-0.40598,0.86634 -6.78598,8.9565 -7.08513,8.27501z"/>
  <circle stroke="null" id="svg_45" fill="#a0616a" r="27.59866" cy="227.36941" cx="207.8693"/>
  <path id="svg_46" fill="#575a89" d="m207.21558,297.663809s4.712,-23.55983 -8.75079,-31.63749s-28.94494,-17.50159 -28.94494,-17.50159s-4.712,-0.67313 -6.73138,9.42394c0,0 -38.36886,7.40451 -42.40769,43.754s2.69255,89.52735 2.69255,89.52735s-6.05824,46.44652 -13.46276,71.35263c0,0 -6.05824,5.3851 20.86728,-2.69255s74.04515,22.88665 74.04515,22.88665s4.712,-4.712 4.712,-8.07766s5.38511,-22.88669 5.38511,-22.88669s4.712,-82.796 6.73138,-92.21991s-8.07767,-60.58242 -14.13591,-61.92868z"/>
  <path id="svg_48" fill="#a0616a" d="m129.80471,360.938809s-4.712,29.61807 14.809,26.92552c0,0 10.09707,-1.34628 11.44334,0s51.15849,-7.40452 57.88987,-14.809c0,0 8.07766,-2.69255 12.11648,1.34628s44.42711,8.07766 32.31063,-4.03883s-30.96435,-14.809 -30.96435,-14.809l-25.57924,1.34627s-13.46276,4.03883 -21.54042,0s-30.96435,-2.69255 -30.96435,-2.69255l-19.52096,6.73131z"/>
  <path id="svg_49" fill="#575a89" d="m157.40337,267.372589s-30.29121,3.36569 -30.29121,47.11966l0,55.87045s16.82845,-7.40452 20.19414,-6.73138s16.82845,-8.75079 16.82845,-8.75079s15.48217,-36.34945 14.1359,-46.44652s-0.67314,-39.71515 -20.86728,-41.06142z"/>
  <ellipse stroke="null" transform="rotate(11.99627685546875 213.39089965820324,208.10275268554685) " id="svg_50" fill="#2f2e41" ry="13.46276" rx="25.426729" cy="208.102737" cx="213.390897"/>
  <ellipse stroke="null" id="svg_51" fill="#2f2e41" ry="22.55012" rx="10.58736" cy="216.56037" cx="187.13634"/>
  <ellipse stroke="null" transform="rotate(-11.35464859008789 948.3908691406253,252.10272216796858) " id="svg_52" fill="#2f2e41" ry="13.46276" rx="25.426729" cy="252.102737" cx="948.390897"/>
  <ellipse stroke="null" stroke-width="0" transform="rotate(1.0614824295043945 977.7058715820325,234.3386993408181) " id="svg_53" fill="#2f2e41" ry="22.689371" rx="21.132764" cy="234.338701" cx="977.705857"/>
  <ellipse stroke="null" transform="rotate(-2.946092128753662 978.1363525390622,267.060363769533) " id="svg_55" fill="#2f2e41" ry="19.638251" rx="10.073402" cy="267.060377" cx="978.136348"/>
 </g>
</svg>