<svg width="820" height="725.17352" xmlns="http://www.w3.org/2000/svg">
 <title>voice interface</title>

 <g>
  <title>background</title>
  <rect fill="none" id="canvas_background" height="402" width="582" y="-1" x="-1"/>
 </g>
 <g>
  <title>Layer 1</title>
  <circle id="svg_1" fill="#f2f2f2" r="350.303741" cy="351.30375" cx="428.15967"/>
  <path id="svg_2" fill="#3f3d56" d="m199.41627,597.798841c-22.56492,34.60437 -16.38211,78.61668 -16.38211,78.61668s42.76778,-12.09246 65.3327,-46.69683s16.38214,-78.61668 16.38214,-78.61668s-42.7678,12.09246 -65.33273,46.69683z"/>
  <path id="svg_3" fill="#6c63ff" d="m182.91411,676.013091s-0.54932,-0.08764 -1.56033,-0.29219c-0.80645,-0.16361 -1.91676,-0.39738 -3.27253,-0.71878c-12.1201,-2.85764 -44.343,-12.51748 -65.41,-37.91479c-26.36737,-31.80212 -25.25706,-76.23279 -25.25706,-76.23279s40.31663,6.55095 66.88267,35.10975q1.72688,1.84079 3.3602,3.816c22.94289,27.67056 25.08172,64.90163 25.25121,74.10566c0.02335,1.37915 0.00584,2.12714 0.00584,2.12714z"/>
  <path id="svg_4" stroke-width="2" stroke-miterlimit="10" stroke="#3f3d56" fill="none" d="m166.652,597.798841c22.56492,34.60437 16.38212,78.61668 16.38212,78.61668s-42.76779,-12.09246 -65.33271,-46.69683s-16.38212,-78.61668 -16.38212,-78.61668s42.76782,12.09246 65.33271,46.69683z"/>
  <path id="svg_5" opacity="0.1" d="m182.90826,673.885961c-0.59608,0.71878 -1.122,1.33238 -1.55448,1.83494c-0.95836,1.09279 -1.50187,1.66551 -1.50187,1.66551s-0.66032,-0.82985 -1.77066,-2.38429c-6.09511,-8.49692 -25.70116,-38.70954 -24.18763,-73.60892q0.12273,-2.74368 0.40323,-5.42891q1.72688,1.84079 3.3602,3.816c22.94289,27.67057 25.08172,64.90164 25.25121,74.10567z"/>
  <path id="svg_6" fill="#6c63ff" d="m216.36616,603.917001c-1.78358,41.27296 -32.42138,73.46976 -32.42138,73.46976s-27.746,-34.71986 -25.96245,-75.99282s32.42139,-73.46979 32.42139,-73.46979s27.74603,34.71989 25.96244,75.99285z"/>
  <line id="svg_7" stroke-width="2" stroke-miterlimit="10" stroke="#3f3d56" fill="none" y2="529.60758" x2="190.68055" y1="676.21802" x1="183.94478"/>
  <ellipse id="svg_8" fill="#3f3d56" ry="33.46939" rx="410" cy="691.70413" cx="410"/>
  <path id="svg_9" fill="#2f2e41" d="m466.16134,309.141101c-10.22172,3.452 -19.48214,11.526 -21.57532,22.10989c-0.97029,4.90609 -0.37541,10.00627 -1.19193,14.94028c-1.89369,11.44308 -10.87614,20.18223 -19.16092,28.29966s-16.84038,17.54954 -17.445,29.13248c-0.66212,12.68359 8.53642,24.56607 6.94469,37.16679c-1.84926,14.63945 -17.31156,24.12557 -21.13385,38.37771c-2.55232,9.51678 0.57528,19.76824 5.72092,28.171c9.80557,16.01228 26.56626,26.883 44.41511,32.71059s36.85832,7.05363 55.6334,7.25035c22.86083,0.23953 47.68171,-1.7231 64.8582,-16.811a51.95919,51.95919 0 0 0 17.24947,-33.82634c1.63176,-17.4771 -5.66271,-35.53562 -0.63115,-52.35212c3.16658,-10.58338 11.1076,-20.249 9.9225,-31.2322c-1.15873,-10.73884 -10.538,-18.35073 -16.97235,-27.0262c-6.00763,-8.10007 -9.65307,-17.66582 -13.22586,-27.09651l-12.22455,-32.26767c-2.40313,-6.34326 -5.042,-13.01469 -10.39749,-17.178c-10.02593,-7.794 -26.14724,-6.26264 -37.8707,-4.65515c-10.87589,1.49128 -22.45618,0.75429 -32.91517,4.28644z"/>
  <path id="svg_10" fill="#b0616a" d="m478.98972,383.136611s5.41908,17.612 -35.22405,37.93359s4.06431,41.9979 4.06431,41.9979l47.417,10.83817s48.77176,-6.77385 54.19085,-14.90248s14.90248,-35.224 12.19294,-39.28836a63.34152,63.34152 0 0 0 -6.77387,-8.12867s-32.51451,-5.41908 -31.15973,-20.32156s-44.70745,-8.12859 -44.70745,-8.12859z"/>
  <circle id="svg_12" fill="#a0616a" r="43.352669" cy="367.55674" cx="499.40776"/>
  <path id="svg_13" fill="#6c63ff" d="m500.66606,460.003761s-52.21052,-3.81827 -53.20069,-39.84273c0,0 -18.60218,-2.15517 -24.02127,3.26391s-23.0311,9.4834 -23.0311,23.03111s29.805,54.19084 29.805,54.19084s16.25725,54.19085 9.4834,63.67424s-8.12863,33.86928 -8.12863,33.86928s67.73856,-5.41908 78.57672,0s54.19085,5.41908 56.90039,0s-2.70958,-73.15765 -2.70958,-73.15765s12.19294,-16.25725 9.4834,-35.22405l32.5145,-37.93359s-12.19294,-36.57882 -31.15973,-36.57882c0,0 -25.74065,-6.77385 -26.418,-3.38692s12.87029,41.32055 -48.09441,48.09438z"/>
  <path id="svg_14" fill="#ffb9b9" d="m378.73666,579.223651s12.19294,18.96679 43.35267,23.0311s36.57882,-6.77385 33.86928,-9.48339s-35.22405,-14.90249 -35.22405,-14.90249l-18.96679,-14.90248l-23.03111,16.25726z"/>
  <path id="svg_15" fill="#ffb9b9" d="m600.91912,562.966391l-35.22405,20.32157s-46.06222,-2.70954 -28.45019,10.83817s50.12653,8.12862 50.12653,8.12862l31.15973,-14.90248l-17.61202,-24.38588z"/>
  <path id="svg_16" fill="#2f2e41" d="m424.79888,598.190441s-32.51451,79.93149 6.77385,92.12443s147.67005,9.4834 172.05593,-6.77385s31.15973,-37.93359 27.09542,-44.70745s-31.15973,-25.74065 -50.12653,-27.09542s-155.79867,-13.54771 -155.79867,-13.54771z"/>
  <path id="svg_17" opacity="0.05" d="m424.79888,598.190441s-32.51451,79.93149 6.77385,92.12443s147.67005,9.4834 172.05593,-6.77385s31.15973,-37.93359 27.09542,-44.70745s-31.15973,-25.74065 -50.12653,-27.09542s-155.79867,-13.54771 -155.79867,-13.54771z"/>
  <path id="svg_18" fill="#2f2e41" d="m578.27664,603.156331s114.76691,-41.54471 113.41214,8.58182s-73.15764,63.67424 -73.15764,63.67424l-21.67634,2.70954l-119.2198,4.06432s4.06431,-21.67634 -5.41909,-24.38588c0,0 31.15974,-8.12863 32.51451,-9.4834s78.57672,-28.45019 83.99581,-29.805s21.67633,-12.19294 33.86927,-10.83817c0,0 13.54772,-10.83817 28.4502,-8.12863l-41.99796,2.70959l-30.7711,0.90157z"/>
  <path id="svg_19" opacity="0.1" d="m578.27664,603.156331s114.76691,-41.54471 113.41214,8.58182s-73.15764,63.67424 -73.15764,63.67424l-21.67634,2.70954l-119.2198,4.06432s4.06431,-21.67634 -5.41909,-24.38588c0,0 31.15974,-8.12863 32.51451,-9.4834s78.57672,-28.45019 83.99581,-29.805s21.67633,-12.19294 33.86927,-10.83817c0,0 13.54772,-10.83817 28.4502,-8.12863l-41.99796,2.70959l-30.7711,0.90157z"/>
  <polygon id="svg_20" fill="#2f2e41" points="558 609.885 572.469 642.898 660.529 611.738 667.303 594.126 644.272 590.062 597.97 598.19 577.888 603.61 558 609.885"/>
  <polygon id="svg_21" opacity="0.1" points="558 609.885 572.469 642.898 660.529 611.738 667.303 594.126 644.272 590.062 597.97 598.19 577.888 603.61 558 609.885"/>
  <path id="svg_22" fill="#2f2e41" d="m370.608,649.671761s25.74065,32.51451 55.54562,40.64313s46.06221,-2.70954 46.06221,-2.70954l-9.48336,-37.93359l-4.06432,-24.38588l-17.612,-12.19294l-35.22405,-16.25725l-41.9979,-13.54771s-17.612,-2.70954 -17.612,0s16.25726,43.35267 16.25726,43.35267l8.12854,23.03111z"/>
  <path id="svg_23" fill="#f2f2f2" d="m401.76777,667.283761s5.41908,39.28836 12.19294,41.9979s27.09542,-2.70954 32.5145,-5.41909s23.83913,-15.21063 23.83913,-15.21063s-64.48226,-24.07772 -68.54657,-21.36818z"/>
  <polygon id="svg_24" fill="#ffb9b9" points="525.052 671.348 550.793 675.412 548.083 706.572 512.18 697.851 525.052 671.348"/>
  <path id="svg_25" fill="#f2f2f2" d="m541.17988,680.019941s-12.06363,14.35925 0.12931,22.48787l8.12863,6.77386s27.09542,5.41908 29.805,8.12863s13.54771,-4.06432 13.54771,-4.06432s1.35477,-40.64313 0,-43.35267s-17.612,-5.41909 -18.96679,-2.70954s-17.612,6.77385 -27.09543,4.06431l-5.54843,8.67186z"/>
  <path id="svg_26" fill="#2f2e41" d="m432.9275,607.673841s-94.83397,-55.54562 -109.7365,-35.22408s-31.15973,48.77176 12.19294,70.4481s178.82979,66.38378 178.82979,66.38378s20.32156,-31.15974 20.32156,-39.28836c0,0 -71.80286,-32.51451 -83.9958,-35.22405s-60.9647,-33.86928 -67.73856,-36.57882s-16.25725,-10.83817 -16.25725,-10.83817l66.38382,20.3216z"/>
  <path id="svg_27" fill="#6c63ff" d="m405.83208,439.682221l-5.41908,4.06432s-12.19294,31.15973 -13.54771,48.77176s-17.612,71.80286 -16.25726,78.57672s2.70954,12.19294 10.83817,18.96679c0,0 10.83817,-24.38588 29.805,-20.32156l23.0311,-83.99581l-28.45022,-46.06222z"/>
  <path id="svg_28" fill="#6c63ff" d="m595.5,439.682221l10.8382,12.19294s6.77386,16.25726 6.77386,20.32157s13.54771,63.67424 14.90248,66.38378s6.77385,36.57882 0,44.70745s-18.9668,13.54771 -18.9668,13.54771s8.12863,-28.45019 -17.612,-29.805l2.70954,-10.83817l-24.38588,-81.28627l25.7406,-35.22401z"/>
  <path id="svg_29" fill="#3f3d56" d="m408.54162,532.956371l0,71.361a17.15651,17.15651 0 0 0 16.90238,17.15458l149.23772,2.21093a17.15651,17.15651 0 0 0 17.398,-16.49525l2.745,-71.36924a17.15652,17.15652 0 0 0 -16.89522,-17.81409l-151.98269,-2.20265a17.15652,17.15652 0 0 0 -17.40519,17.15472z"/>
  <ellipse id="svg_30" fill="#2f2e41" ry="25.12724" rx="46.66488" cy="341.03939" cx="499.95028"/>
  <circle id="svg_31" fill="#f2f2f2" r="10.83817" cy="570.41763" cx="499.98867"/>
  <path id="svg_32" fill="#2f2e41" d="m794.98955,568.221431l0,123.76692c0,2.12642 -1.14421,2.43 -3.00378,3.4614c-6.27425,3.47982 -21.74,9.68029 -40.30842,-0.13312c-1.90605,-1.00735 -3.07953,-1.34779 -3.07953,-3.50366l0,-122.79852s23.59238,9.51625 46.39173,-0.79302z"/>
  <ellipse id="svg_33" stroke-miterlimit="10" stroke="#6c63ff" fill="#3f3d56" ry="4.92606" rx="23.19586" cy="568.13844" cx="771.79369"/>
  <g id="svg_34" opacity="0.8">
   <circle id="svg_35" r="0.52042" cy="619.616" cx="792.87703"/>
   <circle id="svg_36" r="0.52042" cy="620.35461" cx="790.235"/>
   <circle id="svg_37" r="0.52042" cy="621.39545" cx="786.97082"/>
   <circle id="svg_38" r="0.52042" cy="622.65635" cx="781.11811"/>
   <circle id="svg_39" r="0.52042" cy="623.40347" cx="774.94755"/>
   <circle id="svg_40" r="0.52042" cy="623.69719" cx="768.55709"/>
   <circle id="svg_41" r="0.52042" cy="622.43629" cx="759.38428"/>
   <circle id="svg_42" r="0.52042" cy="623.17677" cx="762.42349"/>
   <circle id="svg_43" r="0.52042" cy="621.39545" cx="753.70675"/>
   <circle id="svg_44" r="0.52042" cy="621.91587" cx="756.44122"/>
   <circle id="svg_45" r="0.52042" cy="620.35461" cx="750.71034"/>
   <circle id="svg_46" r="0.52042" cy="622.13593" cx="783.98211"/>
   <circle id="svg_47" r="0.52042" cy="623.17677" cx="777.94379"/>
   <circle id="svg_48" r="0.52042" cy="623.69719" cx="771.39112"/>
   <circle id="svg_49" r="0.52042" cy="623.69719" cx="765.4304"/>
  </g>
  <g id="svg_50" opacity="0.8">
   <circle id="svg_51" r="0.52042" cy="622.17701" cx="792.87703"/>
   <circle id="svg_52" r="0.52042" cy="622.91563" cx="790.235"/>
   <circle id="svg_53" r="0.52042" cy="623.95647" cx="786.97082"/>
   <circle id="svg_54" r="0.52042" cy="625.21737" cx="781.11811"/>
   <circle id="svg_55" r="0.52042" cy="625.96449" cx="774.94755"/>
   <circle id="svg_56" r="0.52042" cy="626.25821" cx="768.55709"/>
   <circle id="svg_57" r="0.52042" cy="624.99731" cx="759.38428"/>
   <circle id="svg_58" r="0.52042" cy="625.73779" cx="762.42349"/>
   <circle id="svg_59" r="0.52042" cy="623.95647" cx="753.70675"/>
   <circle id="svg_60" r="0.52042" cy="624.47689" cx="756.44122"/>
   <circle id="svg_61" r="0.52042" cy="622.91563" cx="750.71034"/>
   <circle id="svg_62" r="0.52042" cy="624.69695" cx="783.98211"/>
   <circle id="svg_63" r="0.52042" cy="625.73779" cx="777.94379"/>
   <circle id="svg_64" r="0.52042" cy="626.25821" cx="771.39112"/>
   <circle id="svg_65" r="0.52042" cy="626.25821" cx="765.4304"/>
  </g>
  <g id="svg_66" opacity="0.8">
   <circle id="svg_67" r="0.52042" cy="624.73803" cx="792.87703"/>
   <circle id="svg_68" r="0.52042" cy="625.47665" cx="790.235"/>
   <circle id="svg_69" r="0.52042" cy="626.51749" cx="786.97082"/>
   <circle id="svg_70" r="0.52042" cy="627.77839" cx="781.11811"/>
   <circle id="svg_71" r="0.52042" cy="628.5255" cx="774.94755"/>
   <circle id="svg_72" r="0.52042" cy="628.81923" cx="768.55709"/>
   <circle id="svg_73" r="0.52042" cy="627.55833" cx="759.38428"/>
   <circle id="svg_74" r="0.52042" cy="628.29881" cx="762.42349"/>
   <circle id="svg_75" r="0.52042" cy="626.51749" cx="753.70675"/>
   <circle id="svg_76" r="0.52042" cy="627.03791" cx="756.44122"/>
   <circle id="svg_77" r="0.52042" cy="625.47665" cx="750.71034"/>
   <circle id="svg_78" r="0.52042" cy="627.25797" cx="783.98211"/>
   <circle id="svg_79" r="0.52042" cy="628.29881" cx="777.94379"/>
   <circle id="svg_80" r="0.52042" cy="628.81923" cx="771.39112"/>
   <circle id="svg_81" r="0.52042" cy="628.81923" cx="765.4304"/>
  </g>
  <g id="svg_82" opacity="0.8">
   <circle id="svg_83" r="0.52042" cy="627.29905" cx="792.87703"/>
   <circle id="svg_84" r="0.52042" cy="628.03767" cx="790.235"/>
   <circle id="svg_85" r="0.52042" cy="629.07851" cx="786.97082"/>
   <circle id="svg_86" r="0.52042" cy="630.3394" cx="781.11811"/>
   <circle id="svg_87" r="0.52042" cy="631.08652" cx="774.94755"/>
   <circle id="svg_88" r="0.52042" cy="631.38024" cx="768.55709"/>
   <circle id="svg_89" r="0.52042" cy="630.11935" cx="759.38428"/>
   <circle id="svg_90" r="0.52042" cy="630.85982" cx="762.42349"/>
   <circle id="svg_91" r="0.52042" cy="629.07851" cx="753.70675"/>
   <circle id="svg_92" r="0.52042" cy="629.59893" cx="756.44122"/>
   <circle id="svg_93" r="0.52042" cy="628.03767" cx="750.71034"/>
   <circle id="svg_94" r="0.52042" cy="629.81898" cx="783.98211"/>
   <circle id="svg_95" r="0.52042" cy="630.85982" cx="777.94379"/>
   <circle id="svg_96" r="0.52042" cy="631.38024" cx="771.39112"/>
   <circle id="svg_97" r="0.52042" cy="631.38024" cx="765.4304"/>
  </g>
  <g id="svg_98" opacity="0.8">
   <circle id="svg_99" r="0.52042" cy="629.86007" cx="792.87703"/>
   <circle id="svg_100" r="0.52042" cy="630.59868" cx="790.235"/>
   <circle id="svg_101" r="0.52042" cy="631.63952" cx="786.97082"/>
   <circle id="svg_102" r="0.52042" cy="632.90042" cx="781.11811"/>
   <circle id="svg_103" r="0.52042" cy="633.64754" cx="774.94755"/>
   <circle id="svg_104" r="0.52042" cy="633.94126" cx="768.55709"/>
   <circle id="svg_105" r="0.52042" cy="632.68036" cx="759.38428"/>
   <circle id="svg_106" r="0.52042" cy="633.42084" cx="762.42349"/>
   <circle id="svg_107" r="0.52042" cy="631.63952" cx="753.70675"/>
   <circle id="svg_108" r="0.52042" cy="632.15994" cx="756.44122"/>
   <circle id="svg_109" r="0.52042" cy="630.59868" cx="750.71034"/>
   <circle id="svg_110" r="0.52042" cy="632.38" cx="783.98211"/>
   <circle id="svg_111" r="0.52042" cy="633.42084" cx="777.94379"/>
   <circle id="svg_112" r="0.52042" cy="633.94126" cx="771.39112"/>
   <circle id="svg_113" r="0.52042" cy="633.94126" cx="765.4304"/>
  </g>
  <g id="svg_114" opacity="0.8">
   <circle id="svg_115" r="0.52042" cy="632.42108" cx="792.87703"/>
   <circle id="svg_116" r="0.52042" cy="633.1597" cx="790.235"/>
   <circle id="svg_117" r="0.52042" cy="634.20054" cx="786.97082"/>
   <circle id="svg_118" r="0.52042" cy="635.46144" cx="781.11811"/>
   <circle id="svg_119" r="0.52042" cy="636.20856" cx="774.94755"/>
   <circle id="svg_120" r="0.52042" cy="636.50228" cx="768.55709"/>
   <circle id="svg_121" r="0.52042" cy="635.24138" cx="759.38428"/>
   <circle id="svg_122" r="0.52042" cy="635.98186" cx="762.42349"/>
   <circle id="svg_123" r="0.52042" cy="634.20054" cx="753.70675"/>
   <circle id="svg_124" r="0.52042" cy="634.72096" cx="756.44122"/>
   <circle id="svg_125" r="0.52042" cy="633.1597" cx="750.71034"/>
   <circle id="svg_126" r="0.52042" cy="634.94102" cx="783.98211"/>
   <circle id="svg_127" r="0.52042" cy="635.98186" cx="777.94379"/>
   <circle id="svg_128" r="0.52042" cy="636.50228" cx="771.39112"/>
   <circle id="svg_129" r="0.52042" cy="636.50228" cx="765.4304"/>
  </g>
  <g id="svg_130" opacity="0.8">
   <circle id="svg_131" r="0.52042" cy="634.9821" cx="792.87703"/>
   <circle id="svg_132" r="0.52042" cy="635.72072" cx="790.235"/>
   <circle id="svg_133" r="0.52042" cy="636.76156" cx="786.97082"/>
   <circle id="svg_134" r="0.52042" cy="638.02246" cx="781.11811"/>
   <circle id="svg_135" r="0.52042" cy="638.76957" cx="774.94755"/>
   <circle id="svg_136" r="0.52042" cy="639.0633" cx="768.55709"/>
   <circle id="svg_137" r="0.52042" cy="637.8024" cx="759.38428"/>
   <circle id="svg_138" r="0.52042" cy="638.54288" cx="762.42349"/>
   <circle id="svg_139" r="0.52042" cy="636.76156" cx="753.70675"/>
   <circle id="svg_140" r="0.52042" cy="637.28198" cx="756.44122"/>
   <circle id="svg_141" r="0.52042" cy="635.72072" cx="750.71034"/>
   <circle id="svg_142" r="0.52042" cy="637.50204" cx="783.98211"/>
   <circle id="svg_143" r="0.52042" cy="638.54288" cx="777.94379"/>
   <circle id="svg_144" r="0.52042" cy="639.0633" cx="771.39112"/>
   <circle id="svg_145" r="0.52042" cy="639.0633" cx="765.4304"/>
  </g>
  <g id="svg_146" opacity="0.8">
   <circle id="svg_147" r="0.52042" cy="637.54312" cx="792.87703"/>
   <circle id="svg_148" r="0.52042" cy="638.28174" cx="790.235"/>
   <circle id="svg_149" r="0.52042" cy="639.32258" cx="786.97082"/>
   <circle id="svg_150" r="0.52042" cy="640.58347" cx="781.11811"/>
   <circle id="svg_151" r="0.52042" cy="641.33059" cx="774.94755"/>
   <circle id="svg_152" r="0.52042" cy="641.62431" cx="768.55709"/>
   <circle id="svg_153" r="0.52042" cy="640.36342" cx="759.38428"/>
   <circle id="svg_154" r="0.52042" cy="641.10389" cx="762.42349"/>
   <circle id="svg_155" r="0.52042" cy="639.32258" cx="753.70675"/>
   <circle id="svg_156" r="0.52042" cy="639.843" cx="756.44122"/>
   <circle id="svg_157" r="0.52042" cy="638.28174" cx="750.71034"/>
   <circle id="svg_158" r="0.52042" cy="640.06305" cx="783.98211"/>
   <circle id="svg_159" r="0.52042" cy="641.10389" cx="777.94379"/>
   <circle id="svg_160" r="0.52042" cy="641.62431" cx="771.39112"/>
   <circle id="svg_161" r="0.52042" cy="641.62431" cx="765.4304"/>
  </g>
  <g id="svg_162" opacity="0.8">
   <circle id="svg_163" r="0.52042" cy="640.10414" cx="792.87703"/>
   <circle id="svg_164" r="0.52042" cy="640.84275" cx="790.235"/>
   <circle id="svg_165" r="0.52042" cy="641.88359" cx="786.97082"/>
   <circle id="svg_166" r="0.52042" cy="643.14449" cx="781.11811"/>
   <circle id="svg_167" r="0.52042" cy="643.89161" cx="774.94755"/>
   <circle id="svg_168" r="0.52042" cy="644.18533" cx="768.55709"/>
   <circle id="svg_169" r="0.52042" cy="642.92443" cx="759.38428"/>
   <circle id="svg_170" r="0.52042" cy="643.66491" cx="762.42349"/>
   <circle id="svg_171" r="0.52042" cy="641.88359" cx="753.70675"/>
   <circle id="svg_172" r="0.52042" cy="642.40401" cx="756.44122"/>
   <circle id="svg_173" r="0.52042" cy="640.84275" cx="750.71034"/>
   <circle id="svg_174" r="0.52042" cy="642.62407" cx="783.98211"/>
   <circle id="svg_175" r="0.52042" cy="643.66491" cx="777.94379"/>
   <circle id="svg_176" r="0.52042" cy="644.18533" cx="771.39112"/>
   <circle id="svg_177" r="0.52042" cy="644.18533" cx="765.4304"/>
  </g>
  <g id="svg_178" opacity="0.8">
   <circle id="svg_179" r="0.52042" cy="642.66515" cx="792.87703"/>
   <circle id="svg_180" r="0.52042" cy="643.40377" cx="790.235"/>
   <circle id="svg_181" r="0.52042" cy="644.44461" cx="786.97082"/>
   <circle id="svg_182" r="0.52042" cy="645.70551" cx="781.11811"/>
   <circle id="svg_183" r="0.52042" cy="646.45263" cx="774.94755"/>
   <circle id="svg_184" r="0.52042" cy="646.74635" cx="768.55709"/>
   <circle id="svg_185" r="0.52042" cy="645.48545" cx="759.38428"/>
   <circle id="svg_186" r="0.52042" cy="646.22593" cx="762.42349"/>
   <circle id="svg_187" r="0.52042" cy="644.44461" cx="753.70675"/>
   <circle id="svg_188" r="0.52042" cy="644.96503" cx="756.44122"/>
   <circle id="svg_189" r="0.52042" cy="643.40377" cx="750.71034"/>
   <circle id="svg_190" r="0.52042" cy="645.18509" cx="783.98211"/>
   <circle id="svg_191" r="0.52042" cy="646.22593" cx="777.94379"/>
   <circle id="svg_192" r="0.52042" cy="646.74635" cx="771.39112"/>
   <circle id="svg_193" r="0.52042" cy="646.74635" cx="765.4304"/>
  </g>
  <g id="svg_194" opacity="0.8">
   <circle id="svg_195" r="0.52042" cy="645.22617" cx="792.87703"/>
   <circle id="svg_196" r="0.52042" cy="645.96479" cx="790.235"/>
   <circle id="svg_197" r="0.52042" cy="647.00563" cx="786.97082"/>
   <circle id="svg_198" r="0.52042" cy="648.26653" cx="781.11811"/>
   <circle id="svg_199" r="0.52042" cy="649.01364" cx="774.94755"/>
   <circle id="svg_200" r="0.52042" cy="649.30737" cx="768.55709"/>
   <circle id="svg_201" r="0.52042" cy="648.04647" cx="759.38428"/>
   <circle id="svg_202" r="0.52042" cy="648.78695" cx="762.42349"/>
   <circle id="svg_203" r="0.52042" cy="647.00563" cx="753.70675"/>
   <circle id="svg_204" r="0.52042" cy="647.52605" cx="756.44122"/>
   <circle id="svg_205" r="0.52042" cy="645.96479" cx="750.71034"/>
   <circle id="svg_206" r="0.52042" cy="647.74611" cx="783.98211"/>
   <circle id="svg_207" r="0.52042" cy="648.78695" cx="777.94379"/>
   <circle id="svg_208" r="0.52042" cy="649.30737" cx="771.39112"/>
   <circle id="svg_209" r="0.52042" cy="649.30737" cx="765.4304"/>
  </g>
  <g id="svg_210" opacity="0.8">
   <circle id="svg_211" r="0.52042" cy="647.78719" cx="792.87703"/>
   <circle id="svg_212" r="0.52042" cy="648.52581" cx="790.235"/>
   <circle id="svg_213" r="0.52042" cy="649.56665" cx="786.97082"/>
   <circle id="svg_214" r="0.52042" cy="650.82754" cx="781.11811"/>
   <circle id="svg_215" r="0.52042" cy="651.57466" cx="774.94755"/>
   <circle id="svg_216" r="0.52042" cy="651.86838" cx="768.55709"/>
   <circle id="svg_217" r="0.52042" cy="650.60749" cx="759.38428"/>
   <circle id="svg_218" r="0.52042" cy="651.34796" cx="762.42349"/>
   <circle id="svg_219" r="0.52042" cy="649.56665" cx="753.70675"/>
   <circle id="svg_220" r="0.52042" cy="650.08707" cx="756.44122"/>
   <circle id="svg_221" r="0.52042" cy="648.52581" cx="750.71034"/>
   <circle id="svg_222" r="0.52042" cy="650.30712" cx="783.98211"/>
   <circle id="svg_223" r="0.52042" cy="651.34796" cx="777.94379"/>
   <circle id="svg_224" r="0.52042" cy="651.86838" cx="771.39112"/>
   <circle id="svg_225" r="0.52042" cy="651.86838" cx="765.4304"/>
  </g>
  <g id="svg_226" opacity="0.8">
   <circle id="svg_227" r="0.52042" cy="650.34821" cx="792.87703"/>
   <circle id="svg_228" r="0.52042" cy="651.08682" cx="790.235"/>
   <circle id="svg_229" r="0.52042" cy="652.12766" cx="786.97082"/>
   <circle id="svg_230" r="0.52042" cy="653.38856" cx="781.11811"/>
   <circle id="svg_231" r="0.52042" cy="654.13568" cx="774.94755"/>
   <circle id="svg_232" r="0.52042" cy="654.4294" cx="768.55709"/>
   <circle id="svg_233" r="0.52042" cy="653.1685" cx="759.38428"/>
   <circle id="svg_234" r="0.52042" cy="653.90898" cx="762.42349"/>
   <circle id="svg_235" r="0.52042" cy="652.12766" cx="753.70675"/>
   <circle id="svg_236" r="0.52042" cy="652.64808" cx="756.44122"/>
   <circle id="svg_237" r="0.52042" cy="651.08682" cx="750.71034"/>
   <circle id="svg_238" r="0.52042" cy="652.86814" cx="783.98211"/>
   <circle id="svg_239" r="0.52042" cy="653.90898" cx="777.94379"/>
   <circle id="svg_240" r="0.52042" cy="654.4294" cx="771.39112"/>
   <circle id="svg_241" r="0.52042" cy="654.4294" cx="765.4304"/>
  </g>
  <g id="svg_242" opacity="0.8">
   <circle id="svg_243" r="0.52042" cy="652.90922" cx="792.87703"/>
   <circle id="svg_244" r="0.52042" cy="653.64784" cx="790.235"/>
   <circle id="svg_245" r="0.52042" cy="654.68868" cx="786.97082"/>
   <circle id="svg_246" r="0.52042" cy="655.94958" cx="781.11811"/>
   <circle id="svg_247" r="0.52042" cy="656.6967" cx="774.94755"/>
   <circle id="svg_248" r="0.52042" cy="656.99042" cx="768.55709"/>
   <circle id="svg_249" r="0.52042" cy="655.72952" cx="759.38428"/>
   <circle id="svg_250" r="0.52042" cy="656.47" cx="762.42349"/>
   <circle id="svg_251" r="0.52042" cy="654.68868" cx="753.70675"/>
   <circle id="svg_252" r="0.52042" cy="655.2091" cx="756.44122"/>
   <circle id="svg_253" r="0.52042" cy="653.64784" cx="750.71034"/>
   <circle id="svg_254" r="0.52042" cy="655.42916" cx="783.98211"/>
   <circle id="svg_255" r="0.52042" cy="656.47" cx="777.94379"/>
   <circle id="svg_256" r="0.52042" cy="656.99042" cx="771.39112"/>
   <circle id="svg_257" r="0.52042" cy="656.99042" cx="765.4304"/>
  </g>
  <g id="svg_258" opacity="0.8">
   <circle id="svg_259" r="0.52042" cy="655.47024" cx="792.87703"/>
   <circle id="svg_260" r="0.52042" cy="656.20886" cx="790.235"/>
   <circle id="svg_261" r="0.52042" cy="657.2497" cx="786.97082"/>
   <circle id="svg_262" r="0.52042" cy="658.5106" cx="781.11811"/>
   <circle id="svg_263" r="0.52042" cy="659.25771" cx="774.94755"/>
   <circle id="svg_264" r="0.52042" cy="659.55144" cx="768.55709"/>
   <circle id="svg_265" r="0.52042" cy="658.29054" cx="759.38428"/>
   <circle id="svg_266" r="0.52042" cy="659.03102" cx="762.42349"/>
   <circle id="svg_267" r="0.52042" cy="657.2497" cx="753.70675"/>
   <circle id="svg_268" r="0.52042" cy="657.77012" cx="756.44122"/>
   <circle id="svg_269" r="0.52042" cy="656.20886" cx="750.71034"/>
   <circle id="svg_270" r="0.52042" cy="657.99018" cx="783.98211"/>
   <circle id="svg_271" r="0.52042" cy="659.03102" cx="777.94379"/>
   <circle id="svg_272" r="0.52042" cy="659.55144" cx="771.39112"/>
   <circle id="svg_273" r="0.52042" cy="659.55144" cx="765.4304"/>
  </g>
  <g id="svg_274" opacity="0.8">
   <circle id="svg_275" r="0.52042" cy="658.03126" cx="792.87703"/>
   <circle id="svg_276" r="0.52042" cy="658.76987" cx="790.235"/>
   <circle id="svg_277" r="0.52042" cy="659.81071" cx="786.97082"/>
   <circle id="svg_278" r="0.52042" cy="661.07161" cx="781.11811"/>
   <circle id="svg_279" r="0.52042" cy="661.81873" cx="774.94755"/>
   <circle id="svg_280" r="0.52042" cy="662.11245" cx="768.55709"/>
   <circle id="svg_281" r="0.52042" cy="660.85155" cx="759.38428"/>
   <circle id="svg_282" r="0.52042" cy="661.59203" cx="762.42349"/>
   <circle id="svg_283" r="0.52042" cy="659.81071" cx="753.70675"/>
   <circle id="svg_284" r="0.52042" cy="660.33113" cx="756.44122"/>
   <circle id="svg_285" r="0.52042" cy="658.76987" cx="750.71034"/>
   <circle id="svg_286" r="0.52042" cy="660.55119" cx="783.98211"/>
   <circle id="svg_287" r="0.52042" cy="661.59203" cx="777.94379"/>
   <circle id="svg_288" r="0.52042" cy="662.11245" cx="771.39112"/>
   <circle id="svg_289" r="0.52042" cy="662.11245" cx="765.4304"/>
  </g>
  <g id="svg_290" opacity="0.8">
   <circle id="svg_291" r="0.52042" cy="660.59228" cx="792.87703"/>
   <circle id="svg_292" r="0.52042" cy="661.33089" cx="790.235"/>
   <circle id="svg_293" r="0.52042" cy="662.37173" cx="786.97082"/>
   <circle id="svg_294" r="0.52042" cy="663.63263" cx="781.11811"/>
   <circle id="svg_295" r="0.52042" cy="664.37975" cx="774.94755"/>
   <circle id="svg_296" r="0.52042" cy="664.67347" cx="768.55709"/>
   <circle id="svg_297" r="0.52042" cy="663.41257" cx="759.38428"/>
   <circle id="svg_298" r="0.52042" cy="664.15305" cx="762.42349"/>
   <circle id="svg_299" r="0.52042" cy="662.37173" cx="753.70675"/>
   <circle id="svg_300" r="0.52042" cy="662.89215" cx="756.44122"/>
   <circle id="svg_301" r="0.52042" cy="661.33089" cx="750.71034"/>
   <circle id="svg_302" r="0.52042" cy="663.11221" cx="783.98211"/>
   <circle id="svg_303" r="0.52042" cy="664.15305" cx="777.94379"/>
   <circle id="svg_304" r="0.52042" cy="664.67347" cx="771.39112"/>
   <circle id="svg_305" r="0.52042" cy="664.67347" cx="765.4304"/>
  </g>
  <g id="svg_306" opacity="0.8">
   <circle id="svg_307" r="0.52042" cy="663.15329" cx="792.87703"/>
   <circle id="svg_308" r="0.52042" cy="663.89191" cx="790.235"/>
   <circle id="svg_309" r="0.52042" cy="664.93275" cx="786.97082"/>
   <circle id="svg_310" r="0.52042" cy="666.19365" cx="781.11811"/>
   <circle id="svg_311" r="0.52042" cy="666.94077" cx="774.94755"/>
   <circle id="svg_312" r="0.52042" cy="667.23449" cx="768.55709"/>
   <circle id="svg_313" r="0.52042" cy="665.97359" cx="759.38428"/>
   <circle id="svg_314" r="0.52042" cy="666.71407" cx="762.42349"/>
   <circle id="svg_315" r="0.52042" cy="664.93275" cx="753.70675"/>
   <circle id="svg_316" r="0.52042" cy="665.45317" cx="756.44122"/>
   <circle id="svg_317" r="0.52042" cy="663.89191" cx="750.71034"/>
   <circle id="svg_318" r="0.52042" cy="665.67323" cx="783.98211"/>
   <circle id="svg_319" r="0.52042" cy="666.71407" cx="777.94379"/>
   <circle id="svg_320" r="0.52042" cy="667.23449" cx="771.39112"/>
   <circle id="svg_321" r="0.52042" cy="667.23449" cx="765.4304"/>
  </g>
  <g id="svg_322" opacity="0.8">
   <circle id="svg_323" r="0.52042" cy="665.71431" cx="792.87703"/>
   <circle id="svg_324" r="0.52042" cy="666.45293" cx="790.235"/>
   <circle id="svg_325" r="0.52042" cy="667.49377" cx="786.97082"/>
   <circle id="svg_326" r="0.52042" cy="668.75467" cx="781.11811"/>
   <circle id="svg_327" r="0.52042" cy="669.50178" cx="774.94755"/>
   <circle id="svg_328" r="0.52042" cy="669.79551" cx="768.55709"/>
   <circle id="svg_329" r="0.52042" cy="668.53461" cx="759.38428"/>
   <circle id="svg_330" r="0.52042" cy="669.27509" cx="762.42349"/>
   <circle id="svg_331" r="0.52042" cy="667.49377" cx="753.70675"/>
   <circle id="svg_332" r="0.52042" cy="668.01419" cx="756.44122"/>
   <circle id="svg_333" r="0.52042" cy="666.45293" cx="750.71034"/>
   <circle id="svg_334" r="0.52042" cy="668.23425" cx="783.98211"/>
   <circle id="svg_335" r="0.52042" cy="669.27509" cx="777.94379"/>
   <circle id="svg_336" r="0.52042" cy="669.79551" cx="771.39112"/>
   <circle id="svg_337" r="0.52042" cy="669.79551" cx="765.4304"/>
  </g>
  <g id="svg_338" opacity="0.8">
   <circle id="svg_339" r="0.52042" cy="668.27533" cx="792.87703"/>
   <circle id="svg_340" r="0.52042" cy="669.01394" cx="790.235"/>
   <circle id="svg_341" r="0.52042" cy="670.05478" cx="786.97082"/>
   <circle id="svg_342" r="0.52042" cy="671.31568" cx="781.11811"/>
   <circle id="svg_343" r="0.52042" cy="672.0628" cx="774.94755"/>
   <circle id="svg_344" r="0.52042" cy="672.35652" cx="768.55709"/>
   <circle id="svg_345" r="0.52042" cy="671.09562" cx="759.38428"/>
   <circle id="svg_346" r="0.52042" cy="671.8361" cx="762.42349"/>
   <circle id="svg_347" r="0.52042" cy="670.05478" cx="753.70675"/>
   <circle id="svg_348" r="0.52042" cy="670.5752" cx="756.44122"/>
   <circle id="svg_349" r="0.52042" cy="669.01394" cx="750.71034"/>
   <circle id="svg_350" r="0.52042" cy="670.79526" cx="783.98211"/>
   <circle id="svg_351" r="0.52042" cy="671.8361" cx="777.94379"/>
   <circle id="svg_352" r="0.52042" cy="672.35652" cx="771.39112"/>
   <circle id="svg_353" r="0.52042" cy="672.35652" cx="765.4304"/>
  </g>
  <g id="svg_354" opacity="0.8">
   <circle id="svg_355" r="0.52042" cy="670.83635" cx="792.87703"/>
   <circle id="svg_356" r="0.52042" cy="671.57496" cx="790.235"/>
   <circle id="svg_357" r="0.52042" cy="672.6158" cx="786.97082"/>
   <circle id="svg_358" r="0.52042" cy="673.8767" cx="781.11811"/>
   <circle id="svg_359" r="0.52042" cy="674.62382" cx="774.94755"/>
   <circle id="svg_360" r="0.52042" cy="674.91754" cx="768.55709"/>
   <circle id="svg_361" r="0.52042" cy="673.65664" cx="759.38428"/>
   <circle id="svg_362" r="0.52042" cy="674.39712" cx="762.42349"/>
   <circle id="svg_363" r="0.52042" cy="672.6158" cx="753.70675"/>
   <circle id="svg_364" r="0.52042" cy="673.13622" cx="756.44122"/>
   <circle id="svg_365" r="0.52042" cy="671.57496" cx="750.71034"/>
   <circle id="svg_366" r="0.52042" cy="673.35628" cx="783.98211"/>
   <circle id="svg_367" r="0.52042" cy="674.39712" cx="777.94379"/>
   <circle id="svg_368" r="0.52042" cy="674.91754" cx="771.39112"/>
   <circle id="svg_369" r="0.52042" cy="674.91754" cx="765.4304"/>
  </g>
  <g id="svg_370" opacity="0.8">
   <circle id="svg_371" r="0.52042" cy="673.39736" cx="792.87703"/>
   <circle id="svg_372" r="0.52042" cy="674.13598" cx="790.235"/>
   <circle id="svg_373" r="0.52042" cy="675.17682" cx="786.97082"/>
   <circle id="svg_374" r="0.52042" cy="676.43772" cx="781.11811"/>
   <circle id="svg_375" r="0.52042" cy="677.18483" cx="774.94755"/>
   <circle id="svg_376" r="0.52042" cy="677.47856" cx="768.55709"/>
   <circle id="svg_377" r="0.52042" cy="676.21766" cx="759.38428"/>
   <circle id="svg_378" r="0.52042" cy="676.95814" cx="762.42349"/>
   <circle id="svg_379" r="0.52042" cy="675.17682" cx="753.70675"/>
   <circle id="svg_380" r="0.52042" cy="675.69724" cx="756.44122"/>
   <circle id="svg_381" r="0.52042" cy="674.13598" cx="750.71034"/>
   <circle id="svg_382" r="0.52042" cy="675.9173" cx="783.98211"/>
   <circle id="svg_383" r="0.52042" cy="676.95814" cx="777.94379"/>
   <circle id="svg_384" r="0.52042" cy="677.47856" cx="771.39112"/>
   <circle id="svg_385" r="0.52042" cy="677.47856" cx="765.4304"/>
  </g>
  <g id="svg_386" opacity="0.8">
   <circle id="svg_387" r="0.52042" cy="675.95838" cx="792.87703"/>
   <circle id="svg_388" r="0.52042" cy="676.697" cx="790.235"/>
   <circle id="svg_389" r="0.52042" cy="677.73784" cx="786.97082"/>
   <circle id="svg_390" r="0.52042" cy="678.99874" cx="781.11811"/>
   <circle id="svg_391" r="0.52042" cy="679.74585" cx="774.94755"/>
   <circle id="svg_392" r="0.52042" cy="680.03958" cx="768.55709"/>
   <circle id="svg_393" r="0.52042" cy="678.77868" cx="759.38428"/>
   <circle id="svg_394" r="0.52042" cy="679.51916" cx="762.42349"/>
   <circle id="svg_395" r="0.52042" cy="677.73784" cx="753.70675"/>
   <circle id="svg_396" r="0.52042" cy="678.25826" cx="756.44122"/>
   <circle id="svg_397" r="0.52042" cy="676.697" cx="750.71034"/>
   <circle id="svg_398" r="0.52042" cy="678.47832" cx="783.98211"/>
   <circle id="svg_399" r="0.52042" cy="679.51916" cx="777.94379"/>
   <circle id="svg_400" r="0.52042" cy="680.03958" cx="771.39112"/>
   <circle id="svg_401" r="0.52042" cy="680.03958" cx="765.4304"/>
  </g>
  <g id="svg_402" opacity="0.8">
   <circle id="svg_403" r="0.52042" cy="678.5194" cx="792.87703"/>
   <circle id="svg_404" r="0.52042" cy="679.25801" cx="790.235"/>
   <circle id="svg_405" r="0.52042" cy="680.29885" cx="786.97082"/>
   <circle id="svg_406" r="0.52042" cy="681.55975" cx="781.11811"/>
   <circle id="svg_407" r="0.52042" cy="682.30687" cx="774.94755"/>
   <circle id="svg_408" r="0.52042" cy="682.60059" cx="768.55709"/>
   <circle id="svg_409" r="0.52042" cy="681.33969" cx="759.38428"/>
   <circle id="svg_410" r="0.52042" cy="682.08017" cx="762.42349"/>
   <circle id="svg_411" r="0.52042" cy="680.29885" cx="753.70675"/>
   <circle id="svg_412" r="0.52042" cy="680.81927" cx="756.44122"/>
   <circle id="svg_413" r="0.52042" cy="679.25801" cx="750.71034"/>
   <circle id="svg_414" r="0.52042" cy="681.03933" cx="783.98211"/>
   <circle id="svg_415" r="0.52042" cy="682.08017" cx="777.94379"/>
   <circle id="svg_416" r="0.52042" cy="682.60059" cx="771.39112"/>
   <circle id="svg_417" r="0.52042" cy="682.60059" cx="765.4304"/>
  </g>
 </g>
</svg>